<?xml version="1.0" standalone="no"?><!DOCTYPE svg PUBLIC "-//W3C//DTD SVG 1.1//EN" "http://www.w3.org/Graphics/SVG/1.1/DTD/svg11.dtd"><svg class="icon" width="200px" height="200.00px" viewBox="0 0 1024 1024" version="1.1" xmlns="http://www.w3.org/2000/svg"><path fill="#333333" d="M851.319637 804.186665 851.319637 745.594199 809.62298 745.594199 809.62298 420.942121l41.696658 0 0.370437-53.049217 32.589233 0c0.338714 0.034792 0.623193 0.034792 0.791016 0 11.102872 0 20.122293-8.117888 20.122293-18.131963 0-7.208169-4.657067-13.46364-11.429307-16.393365L523.113617 68.030419c-7.27366-5.265934-17.626449-5.265934-24.944112 0L124.533806 335.549266c-6.693446 4.78805-9.31311 12.865006-6.523577 20.189831 2.824325 7.28594 10.43363 12.153808 18.99461 12.153808l34.131355 0-0.375553 53.049217 41.697681 0L212.458321 745.594199l-41.697681 0 0 58.59349-58.572 0 0 58.636468 797.702997 0 0-58.636468L851.319637 804.187689zM302.6249 420.942121l78.860069 0L381.484969 745.553267l-78.860069 0L302.6249 420.942121zM471.607546 420.942121l78.858022 0L550.465568 745.553267l-78.858022 0L471.607546 420.942121zM640.593262 420.942121l78.858022 0L719.451284 745.553267 640.593262 745.553267 640.593262 420.942121z" /></svg>